<svg width="468" height="812" viewBox="0 0 468 812" fill="none" xmlns="http://www.w3.org/2000/svg">
<g style="mix-blend-mode:overlay" opacity="0.3">
<mask id="mask0_1_1716" style="mask-type:alpha" maskUnits="userSpaceOnUse" x="0" y="0" width="468" height="812">
<rect width="468" height="812" rx="40" fill="url(#paint0_linear_1_1716)"/>
</mask>
<g mask="url(#mask0_1_1716)">
<path d="M-523.007 187.86C-148.474 -108.173 18.5589 649.353 511.663 -207" stroke="black" stroke-miterlimit="10" stroke-linecap="round" stroke-linejoin="round" stroke-dasharray="1 1"/>
<path d="M-520.67 200.438C-133.099 -112.515 33.6877 645.759 516.583 -184.689" stroke="black" stroke-width="1.0645" stroke-miterlimit="10" stroke-linecap="round" stroke-linejoin="round" stroke-dasharray="1 1"/>
<path d="M-518.456 213.165C-117.847 -116.858 48.694 642.315 521.38 -162.528" stroke="black" stroke-width="1.129" stroke-miterlimit="10" stroke-linecap="round" stroke-linejoin="round" stroke-dasharray="1 1"/>
<path d="M-516.119 225.743C-102.596 -121.2 63.8223 638.871 526.176 -140.217" stroke="black" stroke-width="1.1935" stroke-miterlimit="10" stroke-linecap="round" stroke-linejoin="round" stroke-dasharray="1 1"/>
<path d="M-513.782 238.321C-87.3438 -125.542 78.9512 635.277 531.096 -117.906" stroke="black" stroke-width="1.2581" stroke-miterlimit="10" stroke-linecap="round" stroke-linejoin="round" stroke-dasharray="1 1"/>
<path d="M-511.445 251.049C-71.9685 -129.885 94.0805 631.834 535.894 -95.5947" stroke="black" stroke-width="1.3226" stroke-miterlimit="10" stroke-linecap="round" stroke-linejoin="round" stroke-dasharray="1 1"/>
<path d="M-509.231 263.627C-56.7168 -134.227 109.209 628.389 540.691 -73.4336" stroke="black" stroke-width="1.3871" stroke-miterlimit="10" stroke-linecap="round" stroke-linejoin="round" stroke-dasharray="1 1"/>
<path d="M-506.894 276.355C-41.4649 -138.57 124.215 624.796 545.61 -51.1225" stroke="black" stroke-width="1.4516" stroke-miterlimit="10" stroke-linecap="round" stroke-linejoin="round" stroke-dasharray="1 1"/>
<path d="M-504.557 288.933C-26.2126 -142.912 139.344 621.352 550.408 -28.8115" stroke="black" stroke-width="1.5161" stroke-miterlimit="10" stroke-linecap="round" stroke-linejoin="round" stroke-dasharray="1 1"/>
<path d="M-502.343 301.661C-10.9608 -147.254 154.473 617.908 555.328 -6.65016" stroke="black" stroke-width="1.5806" stroke-miterlimit="10" stroke-linecap="round" stroke-linejoin="round" stroke-dasharray="1 1"/>
<path d="M-500.005 314.239C4.41452 -151.597 169.603 614.314 560.125 15.6607" stroke="black" stroke-width="1.6452" stroke-miterlimit="10" stroke-linecap="round" stroke-linejoin="round" stroke-dasharray="1 1"/>
<path d="M-497.669 326.966C19.666 -155.939 184.731 610.87 564.922 37.9717" stroke="black" stroke-width="1.7097" stroke-miterlimit="10" stroke-linecap="round" stroke-linejoin="round" stroke-dasharray="1 1"/>
<path d="M-495.332 339.545C34.9178 -160.282 199.737 607.276 569.842 60.2828" stroke="black" stroke-width="1.7742" stroke-miterlimit="10" stroke-linecap="round" stroke-linejoin="round" stroke-dasharray="1 1"/>
<path d="M-493.118 352.272C50.17 -164.474 214.866 603.833 574.516 82.5938" stroke="black" stroke-width="1.8387" stroke-miterlimit="10" stroke-linecap="round" stroke-linejoin="round" stroke-dasharray="1 1"/>
<path d="M-490.781 364.85C65.4219 -168.967 229.995 600.388 579.436 104.755" stroke="black" stroke-width="1.9032" stroke-miterlimit="10" stroke-linecap="round" stroke-linejoin="round" stroke-dasharray="1 1"/>
<path d="M-488.444 377.428C80.7967 -173.309 245.124 596.795 584.356 127.066" stroke="black" stroke-width="1.9677" stroke-miterlimit="10" stroke-linecap="round" stroke-linejoin="round" stroke-dasharray="1 1"/>
<path d="M-486.107 390.156C96.048 -177.651 260.129 593.351 589.152 149.227" stroke="black" stroke-width="2.0323" stroke-miterlimit="10" stroke-linecap="round" stroke-linejoin="round" stroke-dasharray="1 1"/>
<path d="M-483.893 402.734C111.301 -181.994 275.259 589.757 593.95 171.538" stroke="black" stroke-width="2.0968" stroke-miterlimit="10" stroke-linecap="round" stroke-linejoin="round" stroke-dasharray="1 1"/>
<path d="M-481.556 415.462C126.552 -186.336 290.387 586.313 598.869 193.849" stroke="black" stroke-width="2.1613" stroke-miterlimit="10" stroke-linecap="round" stroke-linejoin="round" stroke-dasharray="1 1"/>
<path d="M-479.219 428.04C141.927 -190.678 305.516 582.719 603.666 216.011" stroke="black" stroke-width="2.2258" stroke-miterlimit="10" stroke-linecap="round" stroke-linejoin="round" stroke-dasharray="1 1"/>
<path d="M-476.882 440.768C157.179 -195.021 320.645 579.425 608.587 238.471" stroke="black" stroke-width="2.2903" stroke-miterlimit="10" stroke-linecap="round" stroke-linejoin="round" stroke-dasharray="1 1"/>
<path d="M-474.668 453.345C172.431 -199.363 335.651 575.831 613.261 260.632" stroke="black" stroke-width="2.3548" stroke-miterlimit="10" stroke-linecap="round" stroke-linejoin="round" stroke-dasharray="1 1"/>
<path d="M-472.331 466.073C187.683 -203.556 350.78 572.387 618.18 282.943" stroke="black" stroke-width="2.4194" stroke-miterlimit="10" stroke-linecap="round" stroke-linejoin="round" stroke-dasharray="1 1"/>
<path d="M-469.994 478.651C203.058 -208.048 365.909 568.794 622.977 305.105" stroke="black" stroke-width="2.4839" stroke-miterlimit="10" stroke-linecap="round" stroke-linejoin="round" stroke-dasharray="1 1"/>
<path d="M-467.78 491.229C218.309 -212.391 381.037 565.35 627.897 327.416" stroke="black" stroke-width="2.5484" stroke-miterlimit="10" stroke-linecap="round" stroke-linejoin="round" stroke-dasharray="1 1"/>
<path d="M-465.443 503.957C233.562 -216.733 396.044 561.756 632.695 349.727" stroke="black" stroke-width="2.6129" stroke-miterlimit="10" stroke-linecap="round" stroke-linejoin="round" stroke-dasharray="1 1"/>
<path d="M-463.106 516.535C248.814 -221.075 411.173 558.162 637.491 371.888" stroke="black" stroke-width="2.6774" stroke-miterlimit="10" stroke-linecap="round" stroke-linejoin="round" stroke-dasharray="1 1"/>
<path d="M-460.769 529.263C264.189 -225.418 426.302 554.868 642.411 394.349" stroke="black" stroke-width="2.7419" stroke-miterlimit="10" stroke-linecap="round" stroke-linejoin="round" stroke-dasharray="1 1"/>
<path d="M-458.555 541.841C279.317 -229.76 441.307 551.274 647.208 416.51" stroke="black" stroke-width="2.8065" stroke-miterlimit="10" stroke-linecap="round" stroke-linejoin="round" stroke-dasharray="1 1"/>
<path d="M-456.218 554.569C294.693 -234.103 456.56 547.83 652.005 438.821" stroke="black" stroke-width="2.871" stroke-miterlimit="10" stroke-linecap="round" stroke-linejoin="round" stroke-dasharray="1 1"/>
<path d="M-453.881 567.147C309.944 -238.445 471.688 544.237 656.925 460.982" stroke="black" stroke-width="2.9355" stroke-miterlimit="10" stroke-linecap="round" stroke-linejoin="round" stroke-dasharray="1 1"/>
<path d="M-451.544 579.874C325.319 -242.787 486.817 540.793 661.845 483.443" stroke="black" stroke-width="3" stroke-miterlimit="10" stroke-linecap="round" stroke-linejoin="round" stroke-dasharray="1 1"/>
<path d="M-631 273.809C-257.328 44.71 -217.723 1356.42 605.02 213.165" stroke="black" stroke-miterlimit="10" stroke-linecap="round" stroke-linejoin="round"/>
<path d="M-630.016 292.227C-244.29 26.8911 -194.722 1343.99 608.34 237.124" stroke="black" stroke-width="0.9758" stroke-miterlimit="10" stroke-linecap="round" stroke-linejoin="round"/>
<path d="M-629.155 310.645C-231.253 8.92258 -171.967 1331.41 611.415 261.082" stroke="black" stroke-width="0.9516" stroke-miterlimit="10" stroke-linecap="round" stroke-linejoin="round"/>
<path d="M-628.171 329.063C-218.091 -8.89643 -148.966 1318.98 614.737 284.89" stroke="black" stroke-width="0.9274" stroke-miterlimit="10" stroke-linecap="round" stroke-linejoin="round"/>
<path d="M-627.187 347.63C-205.054 -26.5654 -125.965 1306.7 617.934 308.998" stroke="black" stroke-width="0.9032" stroke-miterlimit="10" stroke-linecap="round" stroke-linejoin="round"/>
<path d="M-626.326 366.048C-192.015 -44.534 -103.21 1294.28 621.01 332.956" stroke="black" stroke-width="0.879" stroke-miterlimit="10" stroke-linecap="round" stroke-linejoin="round"/>
<path d="M-625.342 384.466C-178.855 -62.3529 -80.2091 1281.85 624.331 356.914" stroke="black" stroke-width="0.8548" stroke-miterlimit="10" stroke-linecap="round" stroke-linejoin="round"/>
<path d="M-624.358 403.033C-165.694 -80.1718 -57.2083 1269.57 627.529 381.022" stroke="black" stroke-width="0.8306" stroke-miterlimit="10" stroke-linecap="round" stroke-linejoin="round"/>
<path d="M-623.497 421.451C-152.779 -97.9905 -34.4537 1257.14 630.603 404.83" stroke="black" stroke-width="0.8065" stroke-miterlimit="10" stroke-linecap="round" stroke-linejoin="round"/>
<path d="M-622.513 439.869C-139.618 -115.809 -11.4524 1244.71 633.925 428.788" stroke="black" stroke-width="0.7823" stroke-miterlimit="10" stroke-linecap="round" stroke-linejoin="round"/>
<path d="M-621.529 458.287C-126.457 -133.778 11.5478 1232.13 637.122 452.746" stroke="black" stroke-width="0.7581" stroke-miterlimit="10" stroke-linecap="round" stroke-linejoin="round"/>
<path d="M-620.668 476.854C-113.543 -151.447 34.3025 1219.86 640.197 476.854" stroke="black" stroke-width="0.7339" stroke-miterlimit="10" stroke-linecap="round" stroke-linejoin="round"/>
<path d="M-619.684 495.272C-100.381 -169.266 57.3038 1207.43 643.518 500.813" stroke="black" stroke-width="0.7097" stroke-miterlimit="10" stroke-linecap="round" stroke-linejoin="round"/>
<path d="M-618.7 513.69C-87.2204 -187.235 80.3046 1195 646.716 524.771" stroke="black" stroke-width="0.6855" stroke-miterlimit="10" stroke-linecap="round" stroke-linejoin="round"/>
<path d="M-617.839 532.258C-74.3056 -204.904 103.059 1182.72 649.791 548.729" stroke="black" stroke-width="0.6613" stroke-miterlimit="10" stroke-linecap="round" stroke-linejoin="round"/>
<path d="M-616.855 550.675C-61.1444 -222.723 126.06 1170.29 653.112 572.687" stroke="black" stroke-width="0.6371" stroke-miterlimit="10" stroke-linecap="round" stroke-linejoin="round"/>
<path d="M-615.871 569.093C-48.1065 -240.691 148.938 1157.86 656.31 596.645" stroke="black" stroke-width="0.6129" stroke-miterlimit="10" stroke-linecap="round" stroke-linejoin="round"/>
<path d="M-615.01 587.511C-35.0688 -258.51 171.816 1145.29 659.385 620.603" stroke="black" stroke-width="0.5887" stroke-miterlimit="10" stroke-linecap="round" stroke-linejoin="round"/>
<path d="M-614.026 606.079C-21.9075 -276.329 194.817 1133.01 662.706 644.711" stroke="black" stroke-width="0.5645" stroke-miterlimit="10" stroke-linecap="round" stroke-linejoin="round"/>
<path d="M-613.042 624.496C-8.74626 -294.148 217.818 1120.58 665.905 668.519" stroke="black" stroke-width="0.5403" stroke-miterlimit="10" stroke-linecap="round" stroke-linejoin="round"/>
<path d="M-612.181 642.914C4.29166 -311.967 240.696 1108.15 669.103 692.478" stroke="black" stroke-width="0.5161" stroke-miterlimit="10" stroke-linecap="round" stroke-linejoin="round"/>
<path d="M-611.197 661.482C17.3295 -329.785 263.574 1095.87 672.301 716.585" stroke="black" stroke-width="0.4919" stroke-miterlimit="10" stroke-linecap="round" stroke-linejoin="round"/>
<path d="M-610.213 679.899C30.4902 -347.604 286.575 1083.44 675.498 740.543" stroke="black" stroke-width="0.4677" stroke-miterlimit="10" stroke-linecap="round" stroke-linejoin="round"/>
<path d="M-609.352 698.317C43.5284 -365.423 309.453 1071.02 678.573 764.502" stroke="black" stroke-width="0.4435" stroke-miterlimit="10" stroke-linecap="round" stroke-linejoin="round"/>
<path d="M-608.368 716.735C56.5658 -383.392 332.33 1058.44 681.894 788.31" stroke="black" stroke-width="0.4194" stroke-miterlimit="10" stroke-linecap="round" stroke-linejoin="round"/>
<path d="M-607.384 735.303C69.7271 -401.061 355.331 1046.16 685.092 812.418" stroke="black" stroke-width="0.3952" stroke-miterlimit="10" stroke-linecap="round" stroke-linejoin="round"/>
<path d="M-606.523 753.72C82.7643 -418.88 378.208 1033.73 688.289 836.376" stroke="black" stroke-width="0.371" stroke-miterlimit="10" stroke-linecap="round" stroke-linejoin="round"/>
<path d="M-605.54 772.138C95.8022 -436.848 401.086 1021.3 691.488 860.334" stroke="black" stroke-width="0.3468" stroke-miterlimit="10" stroke-linecap="round" stroke-linejoin="round"/>
<path d="M-604.555 790.706C108.964 -454.517 424.088 1009.02 694.686 884.442" stroke="black" stroke-width="0.3226" stroke-miterlimit="10" stroke-linecap="round" stroke-linejoin="round"/>
<path d="M-603.694 809.123C122.001 -472.486 446.965 996.596 697.761 908.25" stroke="black" stroke-width="0.2984" stroke-miterlimit="10" stroke-linecap="round" stroke-linejoin="round"/>
<path d="M-602.71 827.541C135.039 -490.305 469.843 984.168 701.082 932.208" stroke="black" stroke-width="0.2742" stroke-miterlimit="10" stroke-linecap="round" stroke-linejoin="round"/>
<path d="M-601.726 845.959C148.2 -508.124 492.844 971.739 704.28 956.166" stroke="black" stroke-width="0.25" stroke-miterlimit="10" stroke-linecap="round" stroke-linejoin="round"/>
<path d="M576.483 846.109C122.616 1084.79 78.2135 609.073 -481.31 897.918" stroke="black" stroke-width="2.7419" stroke-miterlimit="10" stroke-linecap="round" stroke-linejoin="round" stroke-dasharray="1 1"/>
<path d="M577.96 832.483C111.792 1086.14 62.7157 594.698 -482.417 872.912" stroke="black" stroke-width="2.6774" stroke-miterlimit="10" stroke-linecap="round" stroke-linejoin="round" stroke-dasharray="1 1"/>
<path d="M579.436 818.857C100.968 1087.49 47.2178 580.324 -483.524 847.906" stroke="black" stroke-width="2.6129" stroke-miterlimit="10" stroke-linecap="round" stroke-linejoin="round" stroke-dasharray="1 1"/>
<path d="M580.789 805.23C90.1446 1088.83 31.7199 565.949 -484.754 822.75" stroke="black" stroke-width="2.5484" stroke-miterlimit="10" stroke-linecap="round" stroke-linejoin="round" stroke-dasharray="1 1"/>
<path d="M582.265 791.454C79.3208 1090.03 16.3451 551.424 -485.861 797.594" stroke="black" stroke-width="2.4839" stroke-miterlimit="10" stroke-linecap="round" stroke-linejoin="round" stroke-dasharray="1 1"/>
<path d="M583.74 777.828C68.4963 1091.38 0.846728 537.049 -486.968 772.438" stroke="black" stroke-width="2.4194" stroke-miterlimit="10" stroke-linecap="round" stroke-linejoin="round" stroke-dasharray="1 1"/>
<path d="M585.094 764.202C57.673 1092.73 -14.6506 522.675 -488.198 747.431" stroke="black" stroke-width="2.3548" stroke-miterlimit="10" stroke-linecap="round" stroke-linejoin="round" stroke-dasharray="1 1"/>
<path d="M586.569 750.576C46.8486 1093.93 -30.149 508.299 -489.428 722.425" stroke="black" stroke-width="2.2903" stroke-miterlimit="10" stroke-linecap="round" stroke-linejoin="round" stroke-dasharray="1 1"/>
<path d="M587.923 736.95C35.9021 1095.42 -45.6464 493.925 -490.535 697.269" stroke="black" stroke-width="2.2258" stroke-miterlimit="10" stroke-linecap="round" stroke-linejoin="round" stroke-dasharray="1 1"/>
<path d="M589.399 723.174C25.2011 1096.47 -61.1443 479.4 -491.765 672.113" stroke="black" stroke-width="2.1613" stroke-miterlimit="10" stroke-linecap="round" stroke-linejoin="round" stroke-dasharray="1 1"/>
<path d="M590.874 709.548C14.3769 1097.82 -76.6426 465.025 -492.872 647.107" stroke="black" stroke-width="2.0968" stroke-miterlimit="10" stroke-linecap="round" stroke-linejoin="round" stroke-dasharray="1 1"/>
<path d="M592.227 695.921C3.42987 1099.17 -92.1406 450.65 -494.102 621.951" stroke="black" stroke-width="2.0323" stroke-miterlimit="10" stroke-linecap="round" stroke-linejoin="round" stroke-dasharray="1 1"/>
<path d="M593.703 682.295C-7.39399 1100.51 -107.638 436.126 -495.209 596.795" stroke="black" stroke-width="1.9677" stroke-miterlimit="10" stroke-linecap="round" stroke-linejoin="round" stroke-dasharray="1 1"/>
<path d="M595.179 668.519C-18.2178 1101.71 -123.136 421.751 -496.316 571.788" stroke="black" stroke-width="1.9032" stroke-miterlimit="10" stroke-linecap="round" stroke-linejoin="round" stroke-dasharray="1 1"/>
<path d="M596.532 654.893C-29.0418 1103.06 -138.511 407.376 -497.546 546.632" stroke="black" stroke-width="1.8387" stroke-miterlimit="10" stroke-linecap="round" stroke-linejoin="round" stroke-dasharray="1 1"/>
<path d="M598.008 641.267C-39.866 1104.41 -154.009 393.001 -498.653 521.626" stroke="black" stroke-width="1.7742" stroke-miterlimit="10" stroke-linecap="round" stroke-linejoin="round" stroke-dasharray="1 1"/>
<path d="M599.484 627.641C-50.5665 1105.75 -169.507 378.476 -499.76 496.47" stroke="black" stroke-width="1.7097" stroke-miterlimit="10" stroke-linecap="round" stroke-linejoin="round" stroke-dasharray="1 1"/>
<path d="M600.838 613.865C-61.5134 1106.95 -185.005 364.101 -500.99 471.314" stroke="black" stroke-width="1.6452" stroke-miterlimit="10" stroke-linecap="round" stroke-linejoin="round" stroke-dasharray="1 1"/>
<path d="M602.314 600.239C-72.3373 1108.15 -200.503 349.577 -502.22 446.158" stroke="black" stroke-width="1.5806" stroke-miterlimit="10" stroke-linecap="round" stroke-linejoin="round" stroke-dasharray="1 1"/>
<path d="M603.667 586.613C-83.1612 1109.5 -216 335.202 -503.327 421.152" stroke="black" stroke-width="1.5161" stroke-miterlimit="10" stroke-linecap="round" stroke-linejoin="round" stroke-dasharray="1 1"/>
<path d="M605.143 572.986C-93.9852 1110.85 -231.498 320.827 -504.557 396.146" stroke="black" stroke-width="1.4516" stroke-miterlimit="10" stroke-linecap="round" stroke-linejoin="round" stroke-dasharray="1 1"/>
<path d="M606.618 559.36C-104.81 1112.19 -246.997 306.452 -505.664 370.989" stroke="black" stroke-width="1.3871" stroke-miterlimit="10" stroke-linecap="round" stroke-linejoin="round" stroke-dasharray="1 1"/>
<path d="M607.971 545.584C-115.633 1113.39 -262.495 292.078 -506.894 345.834" stroke="black" stroke-width="1.3226" stroke-miterlimit="10" stroke-linecap="round" stroke-linejoin="round" stroke-dasharray="1 1"/>
<path d="M609.447 531.958C-126.457 1114.74 -277.992 277.553 -508.001 320.827" stroke="black" stroke-width="1.2581" stroke-miterlimit="10" stroke-linecap="round" stroke-linejoin="round" stroke-dasharray="1 1"/>
<path d="M610.923 518.332C-137.281 1116.09 -293.49 263.178 -509.231 295.671" stroke="black" stroke-width="1.1935" stroke-miterlimit="10" stroke-linecap="round" stroke-linejoin="round" stroke-dasharray="1 1"/>
<path d="M612.276 504.706C-148.105 1117.43 -308.988 248.803 -510.338 270.665" stroke="black" stroke-width="1.129" stroke-miterlimit="10" stroke-linecap="round" stroke-linejoin="round" stroke-dasharray="1 1"/>
<path d="M613.752 490.93C-158.929 1118.63 -324.363 234.279 -511.568 245.359" stroke="black" stroke-width="1.0645" stroke-miterlimit="10" stroke-linecap="round" stroke-linejoin="round" stroke-dasharray="1 1"/>
<path d="M615.105 477.304C-169.876 1119.98 -339.984 219.904 -512.798 220.353" stroke="black" stroke-miterlimit="10" stroke-linecap="round" stroke-linejoin="round" stroke-dasharray="1 1"/>
</g>
</g>
<defs>
<linearGradient id="paint0_linear_1_1716" x1="234" y1="0" x2="234" y2="812" gradientUnits="userSpaceOnUse">
<stop stop-color="#2D9CDB"/>
<stop offset="1" stop-color="#2F80ED"/>
</linearGradient>
</defs>
</svg>
